<?xml version="1.0" encoding="UTF-8" standalone="no"?>
<svg
   width="1100"
   height="320"
   viewBox="0 0 1100 320"
   role="img"
   aria-label="Animated UNCLAW ASCII logo"
   version="1.1"
   id="svg36"
   sodipodi:docname="unclaw-animated.svg"
   xmlns:inkscape="http://www.inkscape.org/namespaces/inkscape"
   xmlns:sodipodi="http://sodipodi.sourceforge.net/DTD/sodipodi-0.dtd"
   xmlns="http://www.w3.org/2000/svg"
   xmlns:svg="http://www.w3.org/2000/svg">
  <sodipodi:namedview
     id="namedview36"
     pagecolor="#ffffff"
     bordercolor="#000000"
     borderopacity="0.25"
     inkscape:showpageshadow="2"
     inkscape:pageopacity="0.0"
     inkscape:pagecheckerboard="0"
     inkscape:deskcolor="#d1d1d1" />
  <defs
     id="defs14">
    <linearGradient
       id="logoGradient"
       x1="0%"
       y1="0%"
       x2="100%"
       y2="0%">
      <stop
         offset="0%"
         stop-color="#f5b9a0"
         id="stop1">
        <animate
           attributeName="stop-color"
           values="#f5b9a0;#ffd8c8;#f5b9a0"
           dur="4s"
           repeatCount="indefinite" />
      </stop>
      <stop
         offset="50%"
         stop-color="#ffffff"
         id="stop2">
        <animate
           attributeName="stop-color"
           values="#ffffff;#f5b9a0;#ffffff"
           dur="4s"
           repeatCount="indefinite" />
      </stop>
      <stop
         offset="100%"
         stop-color="#f5b9a0"
         id="stop3">
        <animate
           attributeName="stop-color"
           values="#f5b9a0;#ffe9df;#f5b9a0"
           dur="4s"
           repeatCount="indefinite" />
      </stop>
      <animateTransform
         attributeName="gradientTransform"
         type="translate"
         values="-0.25 0;0.25 0;-0.25 0"
         dur="6s"
         repeatCount="indefinite" />
    </linearGradient>
    <linearGradient
       id="shimmer"
       x1="0%"
       y1="0%"
       x2="100%"
       y2="0%">
      <stop
         offset="0%"
         stop-color="rgba(255,255,255,0)"
         id="stop4" />
      <stop
         offset="45%"
         stop-color="rgba(255,255,255,0)"
         id="stop5" />
      <stop
         offset="50%"
         stop-color="rgba(255,255,255,0.95)"
         id="stop6" />
      <stop
         offset="55%"
         stop-color="rgba(255,255,255,0)"
         id="stop7" />
      <stop
         offset="100%"
         stop-color="rgba(255,255,255,0)"
         id="stop8" />
    </linearGradient>
    <mask
       id="textMask">
      <rect
         width="100%"
         height="100%"
         fill="black"
         id="rect8" />
      <g
         font-family="monospace"
         font-size="28"
         font-weight="700"
         xml:space="preserve"
         fill="white"
         id="g13">
          <text
   x="104"
   y="88"
   id="text8">██╗   ██╗███╗   ██╗ ██████╗██╗      █████╗ ██╗    ██╗</text>
          <text
   x="104"
   y="124"
   id="text9">██║   ██║████╗  ██║██╔════╝██║     ██╔══██╗██║    ██║</text>
          <text
   x="104"
   y="160"
   id="text10">██║   ██║██╔██╗ ██║██║     ██║     ███████║██║ █╗ ██║</text>
          <text
   x="104"
   y="196"
   id="text11">██║   ██║██║╚██╗██║██║     ██║     ██╔══██║██║███╗██║</text>
          <text
   x="104"
   y="232"
   id="text12">╚██████╔╝██║ ╚████║╚██████╗███████╗██║  ██║╚███╔███╔╝</text>
          <text
   x="104"
   y="268"
   id="text13"> ╚═════╝ ╚═╝  ╚═══╝ ╚═════╝╚══════╝╚═╝  ╚═╝ ╚══╝╚══╝</text>
        </g>
    </mask>
    <filter
       id="softGlow"
       x="-5.0088537"
       y="-0.46583851"
       width="11.017705"
       height="1.931677">
      <feGaussianBlur
         stdDeviation="4"
         result="blur"
         id="feGaussianBlur13" />
      <feMerge
         id="feMerge14">
        <feMergeNode
           in="blur"
           id="feMergeNode13" />
        <feMergeNode
           in="SourceGraphic"
           id="feMergeNode14" />
      </feMerge>
    </filter>
    <filter
       id="shadow"
       x="0"
       y="0"
       width="1"
       height="1">
      <feDropShadow
         dx="0"
         dy="2"
         stdDeviation="3"
         flood-color="#000000"
         flood-opacity="0.35" />
    </filter>
    <style
       id="style14"><![CDATA[
        .logo-main {
        animation: pulseGlow 3.4s ease-in-out infinite;
        }

        .logo-shadow {
        opacity: 0.26;
        animation: shadowPulse 3.4s ease-in-out infinite;
        }

        .spark {
        opacity: 0;
        animation: twinkle 2.8s infinite ease-in-out;
        }

        .spark.s1 { animation-delay: 0s; }
        .spark.s2 { animation-delay: 0.4s; }
        .spark.s3 { animation-delay: 0.8s; }
        .spark.s4 { animation-delay: 1.2s; }
        .spark.s5 { animation-delay: 1.6s; }
        .spark.s6 { animation-delay: 2s; }

        .scanline {
        animation: scanMove 4.8s linear infinite;
        }

        .subtitle {
        animation: subtitleFade 3s ease-in-out infinite;
        }

        @keyframes pulseGlow {
        0%, 100% { opacity: 0.96; }
        50% { opacity: 1; }
        }

        @keyframes shadowPulse {
        0%, 100% { opacity: 0.18; }
        50% { opacity: 0.34; }
        }

        @keyframes twinkle {
        0%, 100% { opacity: 0; transform: translateY(0px) scale(0.85); }
        20% { opacity: 0.9; transform: translateY(-2px) scale(1); }
        50% { opacity: 0.4; transform: translateY(-4px) scale(1.08); }
        80% { opacity: 0.85; transform: translateY(-2px) scale(1); }
        }

        @keyframes scanMove {
        0%   { transform: translateX(-540px); opacity: 0; }
        8%   { opacity: 0.0; }
        15%  { opacity: 0.75; }
        50%  { opacity: 0.85; }
        85%  { opacity: 0.75; }
        100% { transform: translateX(980px); opacity: 0; }
        }

        @keyframes subtitleFade {
        0%, 100% { opacity: 0.65; }
        50% { opacity: 1; }
        }
        ]]></style>
  </defs>
  <rect
     width="100%"
     height="100%"
     fill="transparent"
     id="rect14" />
  <rect
     x="40"
     y="28"
     width="1020"
     height="250"
     rx="24"
     fill="#f5b9a0"
     opacity="0.05"
     id="rect15" />
  <g
     id="ascii-shadow"
     class="logo-shadow"
     filter="url(#softGlow)">
    <g
       font-family="monospace"
       font-size="28"
       font-weight="700"
       xml:space="preserve"
       fill="#f5b9a0"
       id="g20">
        <path
   d="M 108,98.72 V 64.756 h 16.8 V 98.72 Z m 16.80001,0 V 64.756 h 16.8 V 98.72 Z m 26.68401,0.168 v -18.62 h -10.052 V 78.28 h 12.04 v 20.608 z m -4.928,0 V 85.196 h -5.124 v -1.988 h 7.112 v 15.68 z M 208.80006,98.72 V 64.756 h 16.8 V 98.72 Z m 16.80001,0 V 64.756 h 16.8 V 98.72 Z m 26.68402,0.168 v -18.62 h -10.052 V 78.28 h 12.04 v 20.608 z m -4.928,0 V 85.196 h -5.124 v -1.988 h 7.112 v 15.68 z M 259.2001,98.72 V 64.756 h 16.8 V 98.72 Z m 16.80001,0 V 64.756 h 16.8 V 98.72 Z m 16.8,0 V 64.756 h 16.8 V 98.72 Z m 26.68402,0.168 v -18.62 h -10.052 V 78.28 h 12.04 v 20.608 z m -4.928,0 V 85.196 h -5.124 v -1.988 h 7.112 v 15.68 z M 376.80017,98.72 V 64.756 h 16.8 V 98.72 Z m 16.80002,0 V 64.756 h 16.8 V 98.72 Z m 26.68402,0.168 v -18.62 h -10.052 V 78.28 h 12.04 v 20.608 z m -4.928,0 V 85.196 h -5.124 v -1.988 h 7.112 v 15.68 z m 28.644,-0.168 V 64.756 h 16.8 V 98.72 Z m 16.80002,0 V 64.756 h 16.8 V 98.72 Z m 16.79999,0 V 64.756 h 16.8 V 98.72 Z m 16.80002,0 V 64.756 h 16.8 V 98.72 Z m 16.80002,0 V 64.756 h 16.8 V 98.72 Z m 16.80001,0 V 64.756 h 16.8 V 98.72 Z m 26.68402,0.168 v -18.62 h -10.052 V 78.28 h 12.04 v 20.608 z m -4.928,0 V 85.196 h -5.124 v -1.988 h 7.112 v 15.68 z M 561.60028,98.72 V 64.756 h 16.8 V 98.72 Z m 16.80002,0 V 64.756 h 16.8 V 98.72 Z m 26.68402,0.168 v -18.62 h -10.052 V 78.28 h 12.04 v 20.608 z m -4.928,0 V 85.196 h -5.124 v -1.988 h 7.112 v 15.68 z M 712.80042,98.72 V 64.756 h 16.8 V 98.72 Z m 16.79998,0 V 64.756 h 16.8 V 98.72 Z m 16.79999,0 V 64.756 h 16.8 V 98.72 Z m 16.80005,0 V 64.756 h 16.8 V 98.72 Z m 16.79999,0 V 64.756 h 16.8 V 98.72 Z m 26.68399,0.168 v -18.62 h -10.052 V 78.28 h 12.04 v 20.608 z m -4.928,0 V 85.196 h -5.124 v -1.988 h 7.112 v 15.68 z M 830.40045,98.72 V 64.756 h 16.8 V 98.72 Z m 16.79999,0 V 64.756 h 16.8 V 98.72 Z m 26.68405,0.168 v -18.62 h -10.052 V 78.28 h 12.04 v 20.608 z m -4.928,0 V 85.196 h -5.124 v -1.988 h 7.112 v 15.68 z M 948.00055,98.72 V 64.756 h 16.8 V 98.72 Z m 16.79999,0 V 64.756 h 16.8 V 98.72 Z m 26.68405,0.168 v -18.62 h -10.052 V 78.28 h 12.04 v 20.608 z m -4.928,0 V 85.196 h -5.124 v -1.988 h 7.112 v 15.68 z"
   id="text15"
   style="opacity:0.0676;filter:url(#softGlow)"
   aria-label="██╗   ██╗███╗   ██╗ ██████╗██╗      █████╗ ██╗    ██╗" />
        <path
   d="m 108,134.72 v -33.964 h 16.8 v 33.964 z m 16.80001,0 v -33.964 h 16.8 v 33.964 z m 26.68401,0.168 v -34.3 h 1.988 v 34.3 z m -4.956,0 v -34.3 h 1.988 v 34.3 z m 62.27204,-0.168 v -33.964 h 16.8 v 33.964 z m 16.80001,0 v -33.964 h 16.8 v 33.964 z m 26.68402,0.168 v -34.3 h 1.988 v 34.3 z m -4.956,0 v -34.3 h 1.988 v 34.3 z m 11.87201,-0.168 v -33.964 h 16.8 v 33.964 z m 16.80001,0 v -33.964 h 16.8 v 33.964 z m 16.8,0 v -33.964 h 16.8 v 33.964 z m 16.80002,0 v -33.964 h 16.8 v 33.964 z m 26.68402,0.168 v -18.62 h -10.052 v -1.988 h 12.04 v 20.608 z m -4.928,0 v -13.692 h -5.124 v -1.988 h 7.112 v 15.68 z m 45.44402,-0.168 v -33.964 h 16.8 v 33.964 z m 16.80002,0 v -33.964 h 16.8 v 33.964 z m 26.68402,0.168 v -34.3 h 1.988 v 34.3 z m -4.956,0 v -34.3 h 1.988 v 34.3 z m 11.87199,-0.168 v -33.964 h 16.8 v 33.964 z m 16.80001,0 v -33.964 h 16.8 v 33.964 z m 21.72802,0.168 V 114.28 h 12.04 v 1.988 h -10.052 v 18.62 z m 4.928,0 v -15.68 h 7.112 v 1.988 h -5.124 v 13.692 z m 6.77599,-18.62 v -1.988 h 17.136 v 1.988 z m 0,4.928 v -1.988 h 17.136 v 1.988 z m 16.80002,-4.928 v -1.988 h 17.136 v 1.988 z m 0,4.928 v -1.988 h 17.136 v 1.988 z m 16.80002,-4.928 v -1.988 h 17.136 v 1.988 z m 0,4.928 v -1.988 h 17.136 v 1.988 z m 16.80001,-4.928 v -1.988 h 17.136 v 1.988 z m 0,4.928 v -1.988 h 17.136 v 1.988 z m 16.80002,0 v -1.988 h 10.052 v -18.62 h 1.988 v 20.608 z m 0,-4.928 v -1.988 h 5.124 v -13.692 h 1.988 v 15.68 z m 16.96799,18.452 v -33.964 h 16.8 v 33.964 z m 16.80002,0 v -33.964 h 16.8 v 33.964 z m 26.68402,0.168 v -34.3 h 1.988 v 34.3 z m -4.956,0 v -34.3 h 1.988 v 34.3 z m 95.87205,-0.168 v -33.964 h 16.8 v 33.964 z m 16.80005,0 v -33.964 h 16.8 v 33.964 z m 21.72798,0.168 V 114.28 h 12.04 v 1.988 h -10.052 v 18.62 z m 4.928,0 v -15.68 h 7.112 v 1.988 h -5.124 v 13.692 z m 6.77599,-18.62 v -1.988 h 17.136 v 1.988 z m 0,4.928 v -1.988 h 17.136 v 1.988 z m 16.80005,-4.928 v -1.988 h 17.136 v 1.988 z m 0,4.928 v -1.988 h 17.136 v 1.988 z m 16.96799,13.524 v -33.964 h 16.8 v 33.964 z m 16.79999,0 v -33.964 h 16.8 v 33.964 z m 26.68404,0.168 v -18.62 h -10.052 v -1.988 h 12.04 v 20.608 z m -4.928,0 v -13.692 h -5.124 v -1.988 h 7.112 v 15.68 z m 11.84399,-0.168 v -33.964 h 16.8 v 33.964 z m 16.79999,0 v -33.964 h 16.8 v 33.964 z m 26.68405,0.168 v -34.3 h 1.988 v 34.3 z m -4.956,0 v -34.3 h 1.988 v 34.3 z m 79.07206,-0.168 v -33.964 h 16.8 v 33.964 z m 16.79999,0 v -33.964 h 16.8 v 33.964 z m 26.68405,0.168 v -34.3 h 1.988 v 34.3 z m -4.956,0 v -34.3 h 1.988 v 34.3 z"
   id="text16"
   style="opacity:0.0676;filter:url(#softGlow)"
   aria-label="██║   ██║████╗  ██║██╔════╝██║     ██╔══██╗██║    ██║" />
        <path
   d="m 108,170.72 v -33.964 h 16.8 v 33.964 z m 16.80001,0 v -33.964 h 16.8 v 33.964 z m 26.68401,0.168 v -34.3 h 1.988 v 34.3 z m -4.956,0 v -34.3 h 1.988 v 34.3 z m 62.27204,-0.168 v -33.964 h 16.8 v 33.964 z m 16.80001,0 v -33.964 h 16.8 v 33.964 z m 26.68402,0.168 v -34.3 h 1.988 v 34.3 z m -4.956,0 v -34.3 h 1.988 v 34.3 z m 11.87201,-0.168 v -33.964 h 16.8 v 33.964 z m 16.80001,0 v -33.964 h 16.8 v 33.964 z m 21.728,0.168 V 150.28 h 12.04 v 1.988 h -10.052 v 18.62 z m 4.928,0 v -15.68 h 7.112 v 1.988 h -5.124 v 13.692 z m 6.94402,-0.168 v -33.964 h 16.8 v 33.964 z m 16.80002,0 v -33.964 h 16.8 v 33.964 z m 26.684,0.168 v -18.62 h -10.052 v -1.988 h 12.04 v 20.608 z m -4.928,0 v -13.692 h -5.124 v -1.988 h 7.112 v 15.68 z m 28.64402,-0.168 v -33.964 h 16.8 v 33.964 z m 16.80002,0 v -33.964 h 16.8 v 33.964 z m 26.68402,0.168 v -34.3 h 1.988 v 34.3 z m -4.956,0 v -34.3 h 1.988 v 34.3 z m 11.87199,-0.168 v -33.964 h 16.8 v 33.964 z m 16.80001,0 v -33.964 h 16.8 v 33.964 z m 26.68402,0.168 v -34.3 h 1.988 v 34.3 z m -4.956,0 v -34.3 h 1.988 v 34.3 z m 95.87205,-0.168 v -33.964 h 16.8 v 33.964 z m 16.80002,0 v -33.964 h 16.8 v 33.964 z m 26.68402,0.168 v -34.3 h 1.988 v 34.3 z m -4.956,0 v -34.3 h 1.988 v 34.3 z m 95.87205,-0.168 v -33.964 h 16.8 v 33.964 z m 16.80005,0 v -33.964 h 16.8 v 33.964 z m 16.79998,0 v -33.964 h 16.8 v 33.964 z m 16.79999,0 v -33.964 h 16.8 v 33.964 z m 16.80005,0 v -33.964 h 16.8 v 33.964 z m 16.79999,0 v -33.964 h 16.8 v 33.964 z m 16.79999,0 v -33.964 h 16.8 v 33.964 z m 26.68404,0.168 v -34.3 h 1.988 v 34.3 z m -4.956,0 v -34.3 h 1.988 v 34.3 z m 11.87199,-0.168 v -33.964 h 16.8 v 33.964 z m 16.79999,0 v -33.964 h 16.8 v 33.964 z m 26.68405,0.168 v -34.3 h 1.988 v 34.3 z m -4.956,0 v -34.3 h 1.988 v 34.3 z m 28.67203,-0.168 v -33.964 h 16.8 v 33.964 z m 26.68399,0.168 v -18.62 h -10.052 v -1.988 h 12.04 v 20.608 z m -4.928,0 v -13.692 h -5.124 v -1.988 h 7.112 v 15.68 z m 28.64404,-0.168 v -33.964 h 16.8 v 33.964 z m 16.79999,0 v -33.964 h 16.8 v 33.964 z m 26.68405,0.168 v -34.3 h 1.988 v 34.3 z m -4.956,0 v -34.3 h 1.988 v 34.3 z"
   id="text17"
   style="opacity:0.0676;filter:url(#softGlow)"
   aria-label="██║   ██║██╔██╗ ██║██║     ██║     ███████║██║ █╗ ██║" />
        <path
   d="m 108,206.72 v -33.964 h 16.8 v 33.964 z m 16.80001,0 v -33.964 h 16.8 v 33.964 z m 26.68401,0.168 v -34.3 h 1.988 v 34.3 z m -4.956,0 v -34.3 h 1.988 v 34.3 z m 62.27204,-0.168 v -33.964 h 16.8 v 33.964 z m 16.80001,0 v -33.964 h 16.8 v 33.964 z m 26.68402,0.168 v -34.3 h 1.988 v 34.3 z m -4.956,0 v -34.3 h 1.988 v 34.3 z m 11.87201,-0.168 v -33.964 h 16.8 v 33.964 z m 16.80001,0 v -33.964 h 16.8 v 33.964 z m 26.684,0.168 v -34.3 h 1.988 v 34.3 z m -4.956,0 v -34.3 h 1.988 v 34.3 z m 16.80002,-13.692 v -20.608 h 1.988 v 18.62 h 10.052 v 1.988 z m 4.928,-4.928 v -15.68 h 1.988 v 13.692 h 5.124 v 1.988 z m 6.94402,18.452 v -33.964 h 16.8 v 33.964 z m 16.8,0 v -33.964 h 16.8 v 33.964 z m 26.684,0.168 v -18.62 h -10.052 v -1.988 h 12.04 v 20.608 z m -4.928,0 v -13.692 h -5.124 v -1.988 h 7.112 v 15.68 z m 11.84402,-0.168 v -33.964 h 16.8 v 33.964 z m 16.80002,0 v -33.964 h 16.8 v 33.964 z m 26.68402,0.168 v -34.3 h 1.988 v 34.3 z m -4.956,0 v -34.3 h 1.988 v 34.3 z m 11.87199,-0.168 v -33.964 h 16.8 v 33.964 z m 16.80001,0 v -33.964 h 16.8 v 33.964 z m 26.68402,0.168 v -34.3 h 1.988 v 34.3 z m -4.956,0 v -34.3 h 1.988 v 34.3 z m 95.87205,-0.168 v -33.964 h 16.8 v 33.964 z m 16.80002,0 v -33.964 h 16.8 v 33.964 z m 26.68402,0.168 v -34.3 h 1.988 v 34.3 z m -4.956,0 v -34.3 h 1.988 v 34.3 z m 95.87205,-0.168 v -33.964 h 16.8 v 33.964 z m 16.80005,0 v -33.964 h 16.8 v 33.964 z m 21.72798,0.168 V 186.28 h 12.04 v 1.988 h -10.052 v 18.62 z m 4.928,0 v -15.68 h 7.112 v 1.988 h -5.124 v 13.692 z m 6.77599,-18.62 v -1.988 h 17.136 v 1.988 z m 0,4.928 v -1.988 h 17.136 v 1.988 z m 16.80005,-4.928 v -1.988 h 17.136 v 1.988 z m 0,4.928 v -1.988 h 17.136 v 1.988 z m 16.96799,13.524 v -33.964 h 16.8 v 33.964 z m 16.79999,0 v -33.964 h 16.8 v 33.964 z m 26.68404,0.168 v -34.3 h 1.988 v 34.3 z m -4.956,0 v -34.3 h 1.988 v 34.3 z m 11.87199,-0.168 v -33.964 h 16.8 v 33.964 z m 16.79999,0 v -33.964 h 16.8 v 33.964 z m 26.68405,0.168 v -34.3 h 1.988 v 34.3 z m -4.956,0 v -34.3 h 1.988 v 34.3 z m 11.87199,-0.168 v -33.964 h 16.8 v 33.964 z m 16.80004,0 v -33.964 h 16.8 v 33.964 z m 16.79999,0 v -33.964 h 16.8 v 33.964 z m 26.68399,0.168 v -18.62 h -10.052 v -1.988 h 12.04 v 20.608 z m -4.928,0 v -13.692 h -5.124 v -1.988 h 7.112 v 15.68 z m 11.84405,-0.168 v -33.964 h 16.8 v 33.964 z m 16.79999,0 v -33.964 h 16.8 v 33.964 z m 26.68405,0.168 v -34.3 h 1.988 v 34.3 z m -4.956,0 v -34.3 h 1.988 v 34.3 z"
   id="text18"
   style="opacity:0.0676;filter:url(#softGlow)"
   aria-label="██║   ██║██║╚██╗██║██║     ██║     ██╔══██║██║███╗██║" />
        <path
   d="m 112.928,229.196 v -20.608 h 1.988 v 18.62 h 10.052 v 1.988 z m 4.928,-4.928 v -15.68 h 1.988 v 13.692 h 5.124 v 1.988 z m 6.94401,18.452 v -33.964 h 16.8 v 33.964 z m 16.80001,0 v -33.964 h 16.8 v 33.964 z m 16.80001,0 v -33.964 h 16.8 v 33.964 z m 16.80001,0 v -33.964 h 16.8 v 33.964 z m 16.80001,0 v -33.964 h 16.8 v 33.964 z m 16.80001,0 v -33.964 h 16.8 v 33.964 z m 21.72801,0.168 V 222.28 h 12.04 v 1.988 h -10.052 v 18.62 z m 4.928,0 v -15.68 h 7.112 v 1.988 h -5.124 v 13.692 z m 6.77602,-13.692 v -1.988 h 10.052 v -18.62 h 1.988 v 20.608 z m 0,-4.928 v -1.988 h 5.124 v -13.692 h 1.988 v 15.68 z m 16.96801,18.452 v -33.964 h 16.8 v 33.964 z m 16.80001,0 v -33.964 h 16.8 v 33.964 z m 26.684,0.168 v -34.3 h 1.988 v 34.3 z m -4.956,0 v -34.3 h 1.988 v 34.3 z m 33.60004,-13.692 v -20.608 h 1.988 v 18.62 h 10.052 v 1.988 z m 4.928,-4.928 v -15.68 h 1.988 v 13.692 h 5.124 v 1.988 z m 6.944,18.452 v -33.964 h 16.8 v 33.964 z m 16.8,0 v -33.964 h 16.8 v 33.964 z m 16.80002,0 v -33.964 h 16.8 v 33.964 z m 16.80002,0 v -33.964 h 16.8 v 33.964 z m 26.68402,0.168 v -34.3 h 1.988 v 34.3 z m -4.956,0 v -34.3 h 1.988 v 34.3 z m 16.79999,-13.692 v -20.608 h 1.988 v 18.62 h 10.052 v 1.988 z m 4.928,-4.928 v -15.68 h 1.988 v 13.692 h 5.124 v 1.988 z m 6.94401,18.452 v -33.964 h 16.8 v 33.964 z m 16.80002,0 v -33.964 h 16.8 v 33.964 z m 16.79999,0 v -33.964 h 16.8 v 33.964 z m 16.80002,0 v -33.964 h 16.8 v 33.964 z m 16.80002,0 v -33.964 h 16.8 v 33.964 z m 16.80001,0 v -33.964 h 16.8 v 33.964 z m 26.68402,0.168 v -18.62 h -10.052 v -1.988 h 12.04 v 20.608 z m -4.928,0 v -13.692 h -5.124 v -1.988 h 7.112 v 15.68 z m 11.84399,-0.168 v -33.964 h 16.8 v 33.964 z m 16.80002,0 v -33.964 h 16.8 v 33.964 z m 16.80002,0 v -33.964 h 16.8 v 33.964 z m 16.79999,0 v -33.964 h 16.8 v 33.964 z m 16.80004,0 v -33.964 h 16.8 v 33.964 z m 16.79999,0 v -33.964 h 16.8 v 33.964 z m 16.79999,0 v -33.964 h 16.8 v 33.964 z m 26.68405,0.168 v -18.62 h -10.052 v -1.988 h 12.04 v 20.608 z m -4.928,0 v -13.692 h -5.124 v -1.988 h 7.112 v 15.68 z m 11.84399,-0.168 v -33.964 h 16.8 v 33.964 z m 16.80005,0 v -33.964 h 16.8 v 33.964 z m 26.68398,0.168 v -34.3 h 1.988 v 34.3 z m -4.956,0 v -34.3 h 1.988 v 34.3 z m 45.47203,-0.168 v -33.964 h 16.8 v 33.964 z m 16.79999,0 v -33.964 h 16.8 v 33.964 z m 26.68404,0.168 v -34.3 h 1.988 v 34.3 z m -4.956,0 v -34.3 h 1.988 v 34.3 z m 16.79999,-13.692 v -20.608 h 1.988 v 18.62 h 10.052 v 1.988 z m 4.928,-4.928 v -15.68 h 1.988 v 13.692 h 5.124 v 1.988 z m 6.94399,18.452 v -33.964 h 16.8 v 33.964 z m 16.80005,0 v -33.964 h 16.8 v 33.964 z m 16.79999,0 v -33.964 h 16.8 v 33.964 z m 21.72804,0.168 V 222.28 h 12.04 v 1.988 h -10.052 v 18.62 z m 4.928,0 v -15.68 h 7.112 v 1.988 h -5.124 v 13.692 z m 6.94399,-0.168 v -33.964 h 16.8 v 33.964 z m 16.79999,0 v -33.964 h 16.8 v 33.964 z m 16.80005,0 v -33.964 h 16.8 v 33.964 z m 21.72799,0.168 V 222.28 h 12.04 v 1.988 h -10.052 v 18.62 z m 4.928,0 v -15.68 h 7.112 v 1.988 h -5.124 v 13.692 z m 6.77605,-13.692 v -1.988 h 10.052 v -18.62 h 1.988 v 20.608 z m 0,-4.928 v -1.988 h 5.124 v -13.692 h 1.988 v 15.68 z"
   id="text19"
   style="opacity:0.0676;filter:url(#softGlow)"
   aria-label="╚██████╔╝██║ ╚████║╚██████╗███████╗██║  ██║╚███╔███╔╝" />
        <path
   d="m 129.72801,265.196 v -20.608 h 1.988 v 18.62 h 10.052 v 1.988 z m 4.928,-4.928 v -15.68 h 1.988 v 13.692 h 5.124 v 1.988 z m 6.77601,0 v -1.988 h 17.136 v 1.988 z m 0,4.928 v -1.988 h 17.136 v 1.988 z m 16.80001,-4.928 v -1.988 h 17.136 v 1.988 z m 0,4.928 v -1.988 h 17.136 v 1.988 z m 16.80001,-4.928 v -1.988 h 17.136 v 1.988 z m 0,4.928 v -1.988 h 17.136 v 1.988 z m 16.80001,-4.928 v -1.988 h 17.136 v 1.988 z m 0,4.928 v -1.988 h 17.136 v 1.988 z m 16.80001,-4.928 v -1.988 h 17.136 v 1.988 z m 0,4.928 v -1.988 h 17.136 v 1.988 z m 16.80001,0 v -1.988 h 10.052 v -18.62 h 1.988 v 20.608 z m 0,-4.928 v -1.988 h 5.124 v -13.692 h 1.988 v 15.68 z m 38.69603,4.928 v -20.608 h 1.988 v 18.62 h 10.052 v 1.988 z m 4.928,-4.928 v -15.68 h 1.988 v 13.692 h 5.124 v 1.988 z m 6.77601,0 v -1.988 h 17.136 v 1.988 z m 0,4.928 v -1.988 h 17.136 v 1.988 z m 16.8,0 v -1.988 h 10.052 v -18.62 h 1.988 v 20.608 z m 0,-4.928 v -1.988 h 5.124 v -13.692 h 1.988 v 15.68 z m 55.49604,4.928 v -20.608 h 1.988 v 18.62 h 10.052 v 1.988 z m 4.928,-4.928 v -15.68 h 1.988 v 13.692 h 5.124 v 1.988 z m 6.776,0 v -1.988 h 17.136 v 1.988 z m 0,4.928 v -1.988 h 17.136 v 1.988 z m 16.80002,-4.928 v -1.988 h 17.136 v 1.988 z m 0,4.928 v -1.988 h 17.136 v 1.988 z m 16.80002,-4.928 v -1.988 h 17.136 v 1.988 z m 0,4.928 v -1.988 h 17.136 v 1.988 z m 16.80002,0 v -1.988 h 10.052 v -18.62 h 1.988 v 20.608 z m 0,-4.928 v -1.988 h 5.124 v -13.692 h 1.988 v 15.68 z m 38.696,4.928 v -20.608 h 1.988 v 18.62 h 10.052 v 1.988 z m 4.928,-4.928 v -15.68 h 1.988 v 13.692 h 5.124 v 1.988 z m 6.77602,0 v -1.988 h 17.136 v 1.988 z m 0,4.928 v -1.988 h 17.136 v 1.988 z m 16.79999,-4.928 v -1.988 h 17.136 v 1.988 z m 0,4.928 v -1.988 h 17.136 v 1.988 z m 16.80002,-4.928 v -1.988 h 17.136 v 1.988 z m 0,4.928 v -1.988 h 17.136 v 1.988 z m 16.80002,-4.928 v -1.988 h 17.136 v 1.988 z m 0,4.928 v -1.988 h 17.136 v 1.988 z m 16.80001,-4.928 v -1.988 h 17.136 v 1.988 z m 0,4.928 v -1.988 h 17.136 v 1.988 z m 16.80002,0 v -1.988 h 10.052 v -18.62 h 1.988 v 20.608 z m 0,-4.928 v -1.988 h 5.124 v -13.692 h 1.988 v 15.68 z m 21.89599,4.928 v -20.608 h 1.988 v 18.62 h 10.052 v 1.988 z m 4.928,-4.928 v -15.68 h 1.988 v 13.692 h 5.124 v 1.988 z m 6.77602,0 v -1.988 h 17.136 v 1.988 z m 0,4.928 v -1.988 h 17.136 v 1.988 z m 16.80002,-4.928 v -1.988 h 17.136 v 1.988 z m 0,4.928 v -1.988 h 17.136 v 1.988 z m 16.79999,-4.928 v -1.988 h 17.136 v 1.988 z m 0,4.928 v -1.988 h 17.136 v 1.988 z m 16.80004,-4.928 v -1.988 h 17.136 v 1.988 z m 0,4.928 v -1.988 h 17.136 v 1.988 z m 16.79999,-4.928 v -1.988 h 17.136 v 1.988 z m 0,4.928 v -1.988 h 17.136 v 1.988 z m 16.79999,-4.928 v -1.988 h 17.136 v 1.988 z m 0,4.928 v -1.988 h 17.136 v 1.988 z m 16.80005,0 v -1.988 h 10.052 v -18.62 h 1.988 v 20.608 z m 0,-4.928 v -1.988 h 5.124 v -13.692 h 1.988 v 15.68 z m 21.89599,4.928 v -20.608 h 1.988 v 18.62 h 10.052 v 1.988 z m 4.928,-4.928 v -15.68 h 1.988 v 13.692 h 5.124 v 1.988 z m 6.77605,0 v -1.988 h 17.136 v 1.988 z m 0,4.928 v -1.988 h 17.136 v 1.988 z m 16.79998,0 v -1.988 h 10.052 v -18.62 h 1.988 v 20.608 z m 0,-4.928 v -1.988 h 5.124 v -13.692 h 1.988 v 15.68 z m 55.49603,4.928 v -20.608 h 1.988 v 18.62 h 10.052 v 1.988 z m 4.928,-4.928 v -15.68 h 1.988 v 13.692 h 5.124 v 1.988 z m 6.77599,0 v -1.988 h 17.136 v 1.988 z m 0,4.928 v -1.988 h 17.136 v 1.988 z m 16.80004,0 v -1.988 h 10.052 v -18.62 h 1.988 v 20.608 z m 0,-4.928 v -1.988 h 5.124 v -13.692 h 1.988 v 15.68 z m 38.69598,4.928 v -20.608 h 1.988 v 18.62 h 10.052 v 1.988 z m 4.928,-4.928 v -15.68 h 1.988 v 13.692 h 5.124 v 1.988 z m 6.77605,0 v -1.988 h 17.136 v 1.988 z m 0,4.928 v -1.988 h 17.136 v 1.988 z m 16.79999,-4.928 v -1.988 h 17.136 v 1.988 z m 0,4.928 v -1.988 h 17.136 v 1.988 z m 16.80004,0 v -1.988 h 10.052 v -18.62 h 1.988 v 20.608 z m 0,-4.928 v -1.988 h 5.124 v -13.692 h 1.988 v 15.68 z m 21.89599,4.928 v -20.608 h 1.988 v 18.62 h 10.052 v 1.988 z m 4.928,-4.928 v -15.68 h 1.988 v 13.692 h 5.124 v 1.988 z m 6.77599,0 v -1.988 h 17.136 v 1.988 z m 0,4.928 v -1.988 h 17.136 v 1.988 z m 16.80005,-4.928 v -1.988 h 17.136 v 1.988 z m 0,4.928 v -1.988 h 17.136 v 1.988 z m 16.79999,0 v -1.988 h 10.052 v -18.62 h 1.988 v 20.608 z m 0,-4.928 v -1.988 h 5.124 v -13.692 h 1.988 v 15.68 z"
   id="text20"
   style="opacity:0.0676;filter:url(#softGlow)"
   aria-label=" ╚═════╝ ╚═╝  ╚═══╝ ╚═════╝╚══════╝╚═╝  ╚═╝ ╚══╝╚══╝" />
      </g>
  </g>
  <g
     id="ascii-main"
     class="logo-main"
     filter="url(#shadow)">
    <g
       font-family="monospace"
       font-size="28"
       font-weight="700"
       xml:space="preserve"
       fill="url(#logoGradient)"
       id="g26">
        <path
   d="M 104,94.72 V 60.756 h 16.8 V 94.72 Z m 16.80001,0 V 60.756 h 16.8 V 94.72 Z m 26.68401,0.168 v -18.62 h -10.052 V 74.28 h 12.04 v 20.608 z m -4.928,0 V 81.196 h -5.124 v -1.988 h 7.112 v 15.68 z M 204.80006,94.72 V 60.756 h 16.8 V 94.72 Z m 16.80001,0 V 60.756 h 16.8 V 94.72 Z m 26.68402,0.168 v -18.62 h -10.052 V 74.28 h 12.04 v 20.608 z m -4.928,0 V 81.196 h -5.124 v -1.988 h 7.112 v 15.68 z M 255.2001,94.72 V 60.756 h 16.8 V 94.72 Z m 16.80001,0 V 60.756 h 16.8 V 94.72 Z m 16.8,0 V 60.756 h 16.8 V 94.72 Z m 26.68402,0.168 v -18.62 h -10.052 V 74.28 h 12.04 v 20.608 z m -4.928,0 V 81.196 h -5.124 v -1.988 h 7.112 v 15.68 z M 372.80017,94.72 V 60.756 h 16.8 V 94.72 Z m 16.80002,0 V 60.756 h 16.8 V 94.72 Z m 26.68402,0.168 v -18.62 h -10.052 V 74.28 h 12.04 v 20.608 z m -4.928,0 V 81.196 h -5.124 v -1.988 h 7.112 v 15.68 z m 28.644,-0.168 V 60.756 h 16.8 V 94.72 Z m 16.80002,0 V 60.756 h 16.8 V 94.72 Z m 16.79999,0 V 60.756 h 16.8 V 94.72 Z m 16.80002,0 V 60.756 h 16.8 V 94.72 Z m 16.80002,0 V 60.756 h 16.8 V 94.72 Z m 16.80001,0 V 60.756 h 16.8 V 94.72 Z m 26.68402,0.168 v -18.62 h -10.052 V 74.28 h 12.04 v 20.608 z m -4.928,0 V 81.196 h -5.124 v -1.988 h 7.112 v 15.68 z M 557.60028,94.72 V 60.756 h 16.8 V 94.72 Z m 16.80002,0 V 60.756 h 16.8 V 94.72 Z m 26.68402,0.168 v -18.62 h -10.052 V 74.28 h 12.04 v 20.608 z m -4.928,0 V 81.196 h -5.124 v -1.988 h 7.112 v 15.68 z M 708.80042,94.72 V 60.756 h 16.8 V 94.72 Z m 16.79998,0 V 60.756 h 16.8 V 94.72 Z m 16.79999,0 V 60.756 h 16.8 V 94.72 Z m 16.80005,0 V 60.756 h 16.8 V 94.72 Z m 16.79999,0 V 60.756 h 16.8 V 94.72 Z m 26.68399,0.168 v -18.62 h -10.052 V 74.28 h 12.04 v 20.608 z m -4.928,0 V 81.196 h -5.124 v -1.988 h 7.112 v 15.68 z M 826.40045,94.72 V 60.756 h 16.8 V 94.72 Z m 16.79999,0 V 60.756 h 16.8 V 94.72 Z m 26.68405,0.168 v -18.62 h -10.052 V 74.28 h 12.04 v 20.608 z m -4.928,0 V 81.196 h -5.124 v -1.988 h 7.112 v 15.68 z M 944.00055,94.72 V 60.756 h 16.8 V 94.72 Z m 16.79999,0 V 60.756 h 16.8 V 94.72 Z m 26.68405,0.168 v -18.62 h -10.052 V 74.28 h 12.04 v 20.608 z m -4.928,0 V 81.196 h -5.124 v -1.988 h 7.112 v 15.68 z"
   id="text21"
   style="filter:url(#shadow)"
   aria-label="██╗   ██╗███╗   ██╗ ██████╗██╗      █████╗ ██╗    ██╗" />
        <path
   d="M 104,130.72 V 96.756 h 16.8 v 33.964 z m 16.80001,0 V 96.756 h 16.8 v 33.964 z m 26.68401,0.168 v -34.3 h 1.988 v 34.3 z m -4.956,0 v -34.3 h 1.988 v 34.3 z m 62.27204,-0.168 V 96.756 h 16.8 v 33.964 z m 16.80001,0 V 96.756 h 16.8 v 33.964 z m 26.68402,0.168 v -34.3 h 1.988 v 34.3 z m -4.956,0 v -34.3 h 1.988 v 34.3 z M 255.2001,130.72 V 96.756 h 16.8 v 33.964 z m 16.80001,0 V 96.756 h 16.8 v 33.964 z m 16.8,0 V 96.756 h 16.8 v 33.964 z m 16.80002,0 V 96.756 h 16.8 v 33.964 z m 26.68402,0.168 v -18.62 h -10.052 v -1.988 h 12.04 v 20.608 z m -4.928,0 v -13.692 h -5.124 v -1.988 h 7.112 v 15.68 z m 45.44402,-0.168 V 96.756 h 16.8 v 33.964 z m 16.80002,0 V 96.756 h 16.8 v 33.964 z m 26.68402,0.168 v -34.3 h 1.988 v 34.3 z m -4.956,0 v -34.3 h 1.988 v 34.3 z M 423.2002,130.72 V 96.756 h 16.8 v 33.964 z m 16.80001,0 V 96.756 h 16.8 v 33.964 z m 21.72802,0.168 V 110.28 h 12.04 v 1.988 h -10.052 v 18.62 z m 4.928,0 v -15.68 h 7.112 v 1.988 h -5.124 v 13.692 z m 6.77599,-18.62 v -1.988 h 17.136 v 1.988 z m 0,4.928 v -1.988 h 17.136 v 1.988 z m 16.80002,-4.928 v -1.988 h 17.136 v 1.988 z m 0,4.928 v -1.988 h 17.136 v 1.988 z m 16.80002,-4.928 v -1.988 h 17.136 v 1.988 z m 0,4.928 v -1.988 h 17.136 v 1.988 z m 16.80001,-4.928 v -1.988 h 17.136 v 1.988 z m 0,4.928 v -1.988 h 17.136 v 1.988 z m 16.80002,0 v -1.988 h 10.052 v -18.62 h 1.988 v 20.608 z m 0,-4.928 v -1.988 h 5.124 V 96.588 h 1.988 v 15.68 z m 16.96799,18.452 V 96.756 h 16.8 v 33.964 z m 16.80002,0 V 96.756 h 16.8 v 33.964 z m 26.68402,0.168 v -34.3 h 1.988 v 34.3 z m -4.956,0 v -34.3 h 1.988 v 34.3 z m 95.87205,-0.168 V 96.756 h 16.8 v 33.964 z m 16.80005,0 V 96.756 h 16.8 v 33.964 z m 21.72798,0.168 V 110.28 h 12.04 v 1.988 h -10.052 v 18.62 z m 4.928,0 v -15.68 h 7.112 v 1.988 h -5.124 v 13.692 z m 6.77599,-18.62 v -1.988 h 17.136 v 1.988 z m 0,4.928 v -1.988 h 17.136 v 1.988 z m 16.80005,-4.928 v -1.988 h 17.136 v 1.988 z m 0,4.928 v -1.988 h 17.136 v 1.988 z m 16.96799,13.524 V 96.756 h 16.8 v 33.964 z m 16.79999,0 V 96.756 h 16.8 v 33.964 z m 26.68404,0.168 v -18.62 h -10.052 v -1.988 h 12.04 v 20.608 z m -4.928,0 v -13.692 h -5.124 v -1.988 h 7.112 v 15.68 z m 11.84399,-0.168 V 96.756 h 16.8 v 33.964 z m 16.79999,0 V 96.756 h 16.8 v 33.964 z m 26.68405,0.168 v -34.3 h 1.988 v 34.3 z m -4.956,0 v -34.3 h 1.988 v 34.3 z m 79.07206,-0.168 V 96.756 h 16.8 v 33.964 z m 16.79999,0 V 96.756 h 16.8 v 33.964 z m 26.68405,0.168 v -34.3 h 1.988 v 34.3 z m -4.956,0 v -34.3 h 1.988 v 34.3 z"
   id="text22"
   style="filter:url(#shadow)"
   aria-label="██║   ██║████╗  ██║██╔════╝██║     ██╔══██╗██║    ██║" />
        <path
   d="m 104,166.72 v -33.964 h 16.8 v 33.964 z m 16.80001,0 v -33.964 h 16.8 v 33.964 z m 26.68401,0.168 v -34.3 h 1.988 v 34.3 z m -4.956,0 v -34.3 h 1.988 v 34.3 z m 62.27204,-0.168 v -33.964 h 16.8 v 33.964 z m 16.80001,0 v -33.964 h 16.8 v 33.964 z m 26.68402,0.168 v -34.3 h 1.988 v 34.3 z m -4.956,0 v -34.3 h 1.988 v 34.3 z m 11.87201,-0.168 v -33.964 h 16.8 v 33.964 z m 16.80001,0 v -33.964 h 16.8 v 33.964 z m 21.728,0.168 V 146.28 h 12.04 v 1.988 h -10.052 v 18.62 z m 4.928,0 v -15.68 h 7.112 v 1.988 h -5.124 v 13.692 z m 6.94402,-0.168 v -33.964 h 16.8 v 33.964 z m 16.80002,0 v -33.964 h 16.8 v 33.964 z m 26.684,0.168 v -18.62 h -10.052 v -1.988 h 12.04 v 20.608 z m -4.928,0 v -13.692 h -5.124 v -1.988 h 7.112 v 15.68 z m 28.64402,-0.168 v -33.964 h 16.8 v 33.964 z m 16.80002,0 v -33.964 h 16.8 v 33.964 z m 26.68402,0.168 v -34.3 h 1.988 v 34.3 z m -4.956,0 v -34.3 h 1.988 v 34.3 z m 11.87199,-0.168 v -33.964 h 16.8 v 33.964 z m 16.80001,0 v -33.964 h 16.8 v 33.964 z m 26.68402,0.168 v -34.3 h 1.988 v 34.3 z m -4.956,0 v -34.3 h 1.988 v 34.3 z m 95.87205,-0.168 v -33.964 h 16.8 v 33.964 z m 16.80002,0 v -33.964 h 16.8 v 33.964 z m 26.68402,0.168 v -34.3 h 1.988 v 34.3 z m -4.956,0 v -34.3 h 1.988 v 34.3 z m 95.87205,-0.168 v -33.964 h 16.8 v 33.964 z m 16.80005,0 v -33.964 h 16.8 v 33.964 z m 16.79998,0 v -33.964 h 16.8 v 33.964 z m 16.79999,0 v -33.964 h 16.8 v 33.964 z m 16.80005,0 v -33.964 h 16.8 v 33.964 z m 16.79999,0 v -33.964 h 16.8 v 33.964 z m 16.79999,0 v -33.964 h 16.8 v 33.964 z m 26.68404,0.168 v -34.3 h 1.988 v 34.3 z m -4.956,0 v -34.3 h 1.988 v 34.3 z m 11.87199,-0.168 v -33.964 h 16.8 v 33.964 z m 16.79999,0 v -33.964 h 16.8 v 33.964 z m 26.68405,0.168 v -34.3 h 1.988 v 34.3 z m -4.956,0 v -34.3 h 1.988 v 34.3 z m 28.67203,-0.168 v -33.964 h 16.8 v 33.964 z m 26.68399,0.168 v -18.62 h -10.052 v -1.988 h 12.04 v 20.608 z m -4.928,0 v -13.692 h -5.124 v -1.988 h 7.112 v 15.68 z m 28.64404,-0.168 v -33.964 h 16.8 v 33.964 z m 16.79999,0 v -33.964 h 16.8 v 33.964 z m 26.68405,0.168 v -34.3 h 1.988 v 34.3 z m -4.956,0 v -34.3 h 1.988 v 34.3 z"
   id="text23"
   style="filter:url(#shadow)"
   aria-label="██║   ██║██╔██╗ ██║██║     ██║     ███████║██║ █╗ ██║" />
        <path
   d="m 104,202.72 v -33.964 h 16.8 v 33.964 z m 16.80001,0 v -33.964 h 16.8 v 33.964 z m 26.68401,0.168 v -34.3 h 1.988 v 34.3 z m -4.956,0 v -34.3 h 1.988 v 34.3 z m 62.27204,-0.168 v -33.964 h 16.8 v 33.964 z m 16.80001,0 v -33.964 h 16.8 v 33.964 z m 26.68402,0.168 v -34.3 h 1.988 v 34.3 z m -4.956,0 v -34.3 h 1.988 v 34.3 z m 11.87201,-0.168 v -33.964 h 16.8 v 33.964 z m 16.80001,0 v -33.964 h 16.8 v 33.964 z m 26.684,0.168 v -34.3 h 1.988 v 34.3 z m -4.956,0 v -34.3 h 1.988 v 34.3 z m 16.80002,-13.692 v -20.608 h 1.988 v 18.62 h 10.052 v 1.988 z m 4.928,-4.928 v -15.68 h 1.988 v 13.692 h 5.124 v 1.988 z m 6.94402,18.452 v -33.964 h 16.8 v 33.964 z m 16.8,0 v -33.964 h 16.8 v 33.964 z m 26.684,0.168 v -18.62 h -10.052 v -1.988 h 12.04 v 20.608 z m -4.928,0 v -13.692 h -5.124 v -1.988 h 7.112 v 15.68 z m 11.84402,-0.168 v -33.964 h 16.8 v 33.964 z m 16.80002,0 v -33.964 h 16.8 v 33.964 z m 26.68402,0.168 v -34.3 h 1.988 v 34.3 z m -4.956,0 v -34.3 h 1.988 v 34.3 z m 11.87199,-0.168 v -33.964 h 16.8 v 33.964 z m 16.80001,0 v -33.964 h 16.8 v 33.964 z m 26.68402,0.168 v -34.3 h 1.988 v 34.3 z m -4.956,0 v -34.3 h 1.988 v 34.3 z m 95.87205,-0.168 v -33.964 h 16.8 v 33.964 z m 16.80002,0 v -33.964 h 16.8 v 33.964 z m 26.68402,0.168 v -34.3 h 1.988 v 34.3 z m -4.956,0 v -34.3 h 1.988 v 34.3 z m 95.87205,-0.168 v -33.964 h 16.8 v 33.964 z m 16.80005,0 v -33.964 h 16.8 v 33.964 z m 21.72798,0.168 V 182.28 h 12.04 v 1.988 h -10.052 v 18.62 z m 4.928,0 v -15.68 h 7.112 v 1.988 h -5.124 v 13.692 z m 6.77599,-18.62 v -1.988 h 17.136 v 1.988 z m 0,4.928 v -1.988 h 17.136 v 1.988 z m 16.80005,-4.928 v -1.988 h 17.136 v 1.988 z m 0,4.928 v -1.988 h 17.136 v 1.988 z m 16.96799,13.524 v -33.964 h 16.8 v 33.964 z m 16.79999,0 v -33.964 h 16.8 v 33.964 z m 26.68404,0.168 v -34.3 h 1.988 v 34.3 z m -4.956,0 v -34.3 h 1.988 v 34.3 z m 11.87199,-0.168 v -33.964 h 16.8 v 33.964 z m 16.79999,0 v -33.964 h 16.8 v 33.964 z m 26.68405,0.168 v -34.3 h 1.988 v 34.3 z m -4.956,0 v -34.3 h 1.988 v 34.3 z m 11.87199,-0.168 v -33.964 h 16.8 v 33.964 z m 16.80004,0 v -33.964 h 16.8 v 33.964 z m 16.79999,0 v -33.964 h 16.8 v 33.964 z m 26.68399,0.168 v -18.62 h -10.052 v -1.988 h 12.04 v 20.608 z m -4.928,0 v -13.692 h -5.124 v -1.988 h 7.112 v 15.68 z m 11.84405,-0.168 v -33.964 h 16.8 v 33.964 z m 16.79999,0 v -33.964 h 16.8 v 33.964 z m 26.68405,0.168 v -34.3 h 1.988 v 34.3 z m -4.956,0 v -34.3 h 1.988 v 34.3 z"
   id="text24"
   style="filter:url(#shadow)"
   aria-label="██║   ██║██║╚██╗██║██║     ██║     ██╔══██║██║███╗██║" />
        <path
   d="m 108.928,225.196 v -20.608 h 1.988 v 18.62 h 10.052 v 1.988 z m 4.928,-4.928 v -15.68 h 1.988 v 13.692 h 5.124 v 1.988 z m 6.94401,18.452 v -33.964 h 16.8 v 33.964 z m 16.80001,0 v -33.964 h 16.8 v 33.964 z m 16.80001,0 v -33.964 h 16.8 v 33.964 z m 16.80001,0 v -33.964 h 16.8 v 33.964 z m 16.80001,0 v -33.964 h 16.8 v 33.964 z m 16.80001,0 v -33.964 h 16.8 v 33.964 z m 21.72801,0.168 V 218.28 h 12.04 v 1.988 h -10.052 v 18.62 z m 4.928,0 v -15.68 h 7.112 v 1.988 h -5.124 v 13.692 z m 6.77602,-13.692 v -1.988 h 10.052 v -18.62 h 1.988 v 20.608 z m 0,-4.928 v -1.988 h 5.124 v -13.692 h 1.988 v 15.68 z m 16.96801,18.452 v -33.964 h 16.8 v 33.964 z m 16.80001,0 v -33.964 h 16.8 v 33.964 z m 26.684,0.168 v -34.3 h 1.988 v 34.3 z m -4.956,0 v -34.3 h 1.988 v 34.3 z m 33.60004,-13.692 v -20.608 h 1.988 v 18.62 h 10.052 v 1.988 z m 4.928,-4.928 v -15.68 h 1.988 v 13.692 h 5.124 v 1.988 z m 6.944,18.452 v -33.964 h 16.8 v 33.964 z m 16.8,0 v -33.964 h 16.8 v 33.964 z m 16.80002,0 v -33.964 h 16.8 v 33.964 z m 16.80002,0 v -33.964 h 16.8 v 33.964 z m 26.68402,0.168 v -34.3 h 1.988 v 34.3 z m -4.956,0 v -34.3 h 1.988 v 34.3 z m 16.79999,-13.692 v -20.608 h 1.988 v 18.62 h 10.052 v 1.988 z m 4.928,-4.928 v -15.68 h 1.988 v 13.692 h 5.124 v 1.988 z m 6.94401,18.452 v -33.964 h 16.8 v 33.964 z m 16.80002,0 v -33.964 h 16.8 v 33.964 z m 16.79999,0 v -33.964 h 16.8 v 33.964 z m 16.80002,0 v -33.964 h 16.8 v 33.964 z m 16.80002,0 v -33.964 h 16.8 v 33.964 z m 16.80001,0 v -33.964 h 16.8 v 33.964 z m 26.68402,0.168 v -18.62 h -10.052 v -1.988 h 12.04 v 20.608 z m -4.928,0 v -13.692 h -5.124 v -1.988 h 7.112 v 15.68 z m 11.84399,-0.168 v -33.964 h 16.8 v 33.964 z m 16.80002,0 v -33.964 h 16.8 v 33.964 z m 16.80002,0 v -33.964 h 16.8 v 33.964 z m 16.79999,0 v -33.964 h 16.8 v 33.964 z m 16.80004,0 v -33.964 h 16.8 v 33.964 z m 16.79999,0 v -33.964 h 16.8 v 33.964 z m 16.79999,0 v -33.964 h 16.8 v 33.964 z m 26.68405,0.168 v -18.62 h -10.052 v -1.988 h 12.04 v 20.608 z m -4.928,0 v -13.692 h -5.124 v -1.988 h 7.112 v 15.68 z m 11.84399,-0.168 v -33.964 h 16.8 v 33.964 z m 16.80005,0 v -33.964 h 16.8 v 33.964 z m 26.68398,0.168 v -34.3 h 1.988 v 34.3 z m -4.956,0 v -34.3 h 1.988 v 34.3 z m 45.47203,-0.168 v -33.964 h 16.8 v 33.964 z m 16.79999,0 v -33.964 h 16.8 v 33.964 z m 26.68404,0.168 v -34.3 h 1.988 v 34.3 z m -4.956,0 v -34.3 h 1.988 v 34.3 z m 16.79999,-13.692 v -20.608 h 1.988 v 18.62 h 10.052 v 1.988 z m 4.928,-4.928 v -15.68 h 1.988 v 13.692 h 5.124 v 1.988 z m 6.94399,18.452 v -33.964 h 16.8 v 33.964 z m 16.80005,0 v -33.964 h 16.8 v 33.964 z m 16.79999,0 v -33.964 h 16.8 v 33.964 z m 21.72804,0.168 V 218.28 h 12.04 v 1.988 h -10.052 v 18.62 z m 4.928,0 v -15.68 h 7.112 v 1.988 h -5.124 v 13.692 z m 6.94399,-0.168 v -33.964 h 16.8 v 33.964 z m 16.79999,0 v -33.964 h 16.8 v 33.964 z m 16.80005,0 v -33.964 h 16.8 v 33.964 z m 21.72799,0.168 V 218.28 h 12.04 v 1.988 h -10.052 v 18.62 z m 4.928,0 v -15.68 h 7.112 v 1.988 h -5.124 v 13.692 z m 6.77605,-13.692 v -1.988 h 10.052 v -18.62 h 1.988 v 20.608 z m 0,-4.928 v -1.988 h 5.124 v -13.692 h 1.988 v 15.68 z"
   id="text25"
   style="filter:url(#shadow)"
   aria-label="╚██████╔╝██║ ╚████║╚██████╗███████╗██║  ██║╚███╔███╔╝" />
        <path
   d="m 125.72801,261.196 v -20.608 h 1.988 v 18.62 h 10.052 v 1.988 z m 4.928,-4.928 v -15.68 h 1.988 v 13.692 h 5.124 v 1.988 z m 6.77601,0 v -1.988 h 17.136 v 1.988 z m 0,4.928 v -1.988 h 17.136 v 1.988 z m 16.80001,-4.928 v -1.988 h 17.136 v 1.988 z m 0,4.928 v -1.988 h 17.136 v 1.988 z m 16.80001,-4.928 v -1.988 h 17.136 v 1.988 z m 0,4.928 v -1.988 h 17.136 v 1.988 z m 16.80001,-4.928 v -1.988 h 17.136 v 1.988 z m 0,4.928 v -1.988 h 17.136 v 1.988 z m 16.80001,-4.928 v -1.988 h 17.136 v 1.988 z m 0,4.928 v -1.988 h 17.136 v 1.988 z m 16.80001,0 v -1.988 h 10.052 v -18.62 h 1.988 v 20.608 z m 0,-4.928 v -1.988 h 5.124 v -13.692 h 1.988 v 15.68 z m 38.69603,4.928 v -20.608 h 1.988 v 18.62 h 10.052 v 1.988 z m 4.928,-4.928 v -15.68 h 1.988 v 13.692 h 5.124 v 1.988 z m 6.77601,0 v -1.988 h 17.136 v 1.988 z m 0,4.928 v -1.988 h 17.136 v 1.988 z m 16.8,0 v -1.988 h 10.052 v -18.62 h 1.988 v 20.608 z m 0,-4.928 v -1.988 h 5.124 v -13.692 h 1.988 v 15.68 z m 55.49604,4.928 v -20.608 h 1.988 v 18.62 h 10.052 v 1.988 z m 4.928,-4.928 v -15.68 h 1.988 v 13.692 h 5.124 v 1.988 z m 6.776,0 v -1.988 h 17.136 v 1.988 z m 0,4.928 v -1.988 h 17.136 v 1.988 z m 16.80002,-4.928 v -1.988 h 17.136 v 1.988 z m 0,4.928 v -1.988 h 17.136 v 1.988 z m 16.80002,-4.928 v -1.988 h 17.136 v 1.988 z m 0,4.928 v -1.988 h 17.136 v 1.988 z m 16.80002,0 v -1.988 h 10.052 v -18.62 h 1.988 v 20.608 z m 0,-4.928 v -1.988 h 5.124 v -13.692 h 1.988 v 15.68 z m 38.696,4.928 v -20.608 h 1.988 v 18.62 h 10.052 v 1.988 z m 4.928,-4.928 v -15.68 h 1.988 v 13.692 h 5.124 v 1.988 z m 6.77602,0 v -1.988 h 17.136 v 1.988 z m 0,4.928 v -1.988 h 17.136 v 1.988 z m 16.79999,-4.928 v -1.988 h 17.136 v 1.988 z m 0,4.928 v -1.988 h 17.136 v 1.988 z m 16.80002,-4.928 v -1.988 h 17.136 v 1.988 z m 0,4.928 v -1.988 h 17.136 v 1.988 z m 16.80002,-4.928 v -1.988 h 17.136 v 1.988 z m 0,4.928 v -1.988 h 17.136 v 1.988 z m 16.80001,-4.928 v -1.988 h 17.136 v 1.988 z m 0,4.928 v -1.988 h 17.136 v 1.988 z m 16.80002,0 v -1.988 h 10.052 v -18.62 h 1.988 v 20.608 z m 0,-4.928 v -1.988 h 5.124 v -13.692 h 1.988 v 15.68 z m 21.89599,4.928 v -20.608 h 1.988 v 18.62 h 10.052 v 1.988 z m 4.928,-4.928 v -15.68 h 1.988 v 13.692 h 5.124 v 1.988 z m 6.77602,0 v -1.988 h 17.136 v 1.988 z m 0,4.928 v -1.988 h 17.136 v 1.988 z m 16.80002,-4.928 v -1.988 h 17.136 v 1.988 z m 0,4.928 v -1.988 h 17.136 v 1.988 z m 16.79999,-4.928 v -1.988 h 17.136 v 1.988 z m 0,4.928 v -1.988 h 17.136 v 1.988 z m 16.80004,-4.928 v -1.988 h 17.136 v 1.988 z m 0,4.928 v -1.988 h 17.136 v 1.988 z m 16.79999,-4.928 v -1.988 h 17.136 v 1.988 z m 0,4.928 v -1.988 h 17.136 v 1.988 z m 16.79999,-4.928 v -1.988 h 17.136 v 1.988 z m 0,4.928 v -1.988 h 17.136 v 1.988 z m 16.80005,0 v -1.988 h 10.052 v -18.62 h 1.988 v 20.608 z m 0,-4.928 v -1.988 h 5.124 v -13.692 h 1.988 v 15.68 z m 21.89599,4.928 v -20.608 h 1.988 v 18.62 h 10.052 v 1.988 z m 4.928,-4.928 v -15.68 h 1.988 v 13.692 h 5.124 v 1.988 z m 6.77605,0 v -1.988 h 17.136 v 1.988 z m 0,4.928 v -1.988 h 17.136 v 1.988 z m 16.79998,0 v -1.988 h 10.052 v -18.62 h 1.988 v 20.608 z m 0,-4.928 v -1.988 h 5.124 v -13.692 h 1.988 v 15.68 z m 55.49603,4.928 v -20.608 h 1.988 v 18.62 h 10.052 v 1.988 z m 4.928,-4.928 v -15.68 h 1.988 v 13.692 h 5.124 v 1.988 z m 6.77599,0 v -1.988 h 17.136 v 1.988 z m 0,4.928 v -1.988 h 17.136 v 1.988 z m 16.80004,0 v -1.988 h 10.052 v -18.62 h 1.988 v 20.608 z m 0,-4.928 v -1.988 h 5.124 v -13.692 h 1.988 v 15.68 z m 38.69598,4.928 v -20.608 h 1.988 v 18.62 h 10.052 v 1.988 z m 4.928,-4.928 v -15.68 h 1.988 v 13.692 h 5.124 v 1.988 z m 6.77605,0 v -1.988 h 17.136 v 1.988 z m 0,4.928 v -1.988 h 17.136 v 1.988 z m 16.79999,-4.928 v -1.988 h 17.136 v 1.988 z m 0,4.928 v -1.988 h 17.136 v 1.988 z m 16.80004,0 v -1.988 h 10.052 v -18.62 h 1.988 v 20.608 z m 0,-4.928 v -1.988 h 5.124 v -13.692 h 1.988 v 15.68 z m 21.89599,4.928 v -20.608 h 1.988 v 18.62 h 10.052 v 1.988 z m 4.928,-4.928 v -15.68 h 1.988 v 13.692 h 5.124 v 1.988 z m 6.77599,0 v -1.988 h 17.136 v 1.988 z m 0,4.928 v -1.988 h 17.136 v 1.988 z m 16.80005,-4.928 v -1.988 h 17.136 v 1.988 z m 0,4.928 v -1.988 h 17.136 v 1.988 z m 16.79999,0 v -1.988 h 10.052 v -18.62 h 1.988 v 20.608 z m 0,-4.928 v -1.988 h 5.124 v -13.692 h 1.988 v 15.68 z"
   id="text26"
   style="filter:url(#shadow)"
   aria-label=" ╚═════╝ ╚═╝  ╚═══╝ ╚═════╝╚══════╝╚═╝  ╚═╝ ╚══╝╚══╝" />
      </g>
  </g>
  <g
     mask="url(#textMask)"
     class="scanline"
     id="g27">
    <rect
       x="-220"
       y="40"
       width="220"
       height="250"
       fill="url(#shimmer)"
       transform="skewX(-18)"
       id="rect26" />
  </g>
  <g
     fill="#f5b9a0"
     id="g36">
    <circle
       class="spark s1"
       cx="72"
       cy="52"
       r="2.4"
       id="circle27" />
    <circle
       class="spark s2"
       cx="1040"
       cy="54"
       r="2.2"
       id="circle28" />
    <circle
       class="spark s3"
       cx="58"
       cy="278"
       r="2.0"
       id="circle29" />
    <circle
       class="spark s4"
       cx="1060"
       cy="272"
       r="2.6"
       id="circle30" />
    <circle
       class="spark s5"
       cx="210"
       cy="26"
       r="1.8"
       id="circle31" />
    <circle
       class="spark s6"
       cx="915"
       cy="300"
       r="1.8"
       id="circle32" />
    <circle
       class="spark s3"
       cx="980"
       cy="112"
       r="1.6"
       id="circle33" />
    <circle
       class="spark s5"
       cx="140"
       cy="210"
       r="1.6"
       id="circle34" />
    <circle
       class="spark s2"
       cx="1015"
       cy="220"
       r="1.8"
       id="circle35" />
    <circle
       class="spark s1"
       cx="165"
       cy="105"
       r="1.4"
       id="circle36" />
  </g>
  <text
     class="subtitle"
     x="550"
     y="304"
     text-anchor="middle"
     font-family="monospace"
     font-size="14"
     letter-spacing="2"
     fill="#f5b9a0"
     opacity="0.85"
     id="text36">
      LIGHTWEIGHT, PRIVACY-FIRST, LOCAL AI AGENT RUNTIME
    </text>
</svg>
